# xmcd CD database file
#
# Track frame offsets:
#	150
#	37124
#	70854
#	90148
#	113905
#	129108
#	162443
#	205941
#	234286
#	244877
#	266829
#
# Disc length: 4058 seconds
#
# Revision: 0
# Processed by: cddbd v1.5PL3 Copyright (c) Steve Scherf et al.
# Submitted via: CdAid (MTCDDB.DLL V2003.07.15)
#
DISCID=8f0fd80b
DTITLE=Samy THIEBAULT Quintet - Blues for Nel
DYEAR=2002
DGENRE=Blues
TTITLE0=I love you
TTITLE1=Impressions of Marie
TTITLE2=Tenderfoot
TTITLE3=Blues for Nel
TTITLE4=Gee Baby, Ain't Good to you
TTITLE5=The Ruby and the Pearl
TTITLE6=Mr Jin
TTITLE7=Rio
TTITLE8=A 541
TTITLE9=My Shining hour
TTITLE10=Transit
EXTD=ID3G:   0 YEAR: 2002
EXTT0=
EXTT1=
EXTT2=
EXTT3=
EXTT4=
EXTT5=
EXTT6=
EXTT7=
EXTT8=
EXTT9=
EXTT10=
PLAYORDER=
